<?xml version="1.0" encoding="UTF-8" standalone="no"?>
<!DOCTYPE svg PUBLIC "-//W3C//DTD SVG 1.1//EN" "http://www.w3.org/Graphics/SVG/1.1/DTD/svg11.dtd">
<svg width="100%" height="100%" viewBox="0 0 1000 1000" version="1.1" xmlns="http://www.w3.org/2000/svg" xmlns:xlink="http://www.w3.org/1999/xlink" xml:space="preserve" xmlns:serif="http://www.serif.com/" style="fill-rule:evenodd;clip-rule:evenodd;stroke-linecap:round;stroke-linejoin:round;stroke-miterlimit:1.5;">
    <g id="Add-New-Plant" serif:id="Add New Plant" transform="matrix(1,0,0,1,0.64035,-5)">
        <g id="My-Plants" serif:id="My Plants" transform="matrix(0.681353,0,0,0.681353,151.29,107.748)">
            <g id="Leaves" transform="matrix(-0.5,0.866025,0.866025,0.5,113.323,-73.3846)">
                <g transform="matrix(1.375,2.57147e-18,1.02859e-17,1.28235,-22.75,-3.51765)">
                    <path d="M86,16C86,16 74,36.743 74,45.633C74,52.735 79.377,58.5 86,58.5C92.623,58.5 98,52.735 98,45.633C98,36.743 86,16 86,16Z" style="fill:white;stroke:black;stroke-width:5.52px;"/>
                </g>
                <g transform="matrix(1,0,0,1,-34.5,5.25)">
                    <path d="M130,32.5L130,56" style="fill:none;stroke:black;stroke-width:7.34px;"/>
                </g>
                <g transform="matrix(0.707107,-0.707107,0.203105,0.203105,-8.0248,128.823)">
                    <path d="M130,32.5L130,56" style="fill:none;stroke:black;stroke-width:9.97px;"/>
                </g>
                <g transform="matrix(0.707107,-0.707107,0.203105,0.203105,-8.0248,138.823)">
                    <path d="M130,32.5L130,56" style="fill:none;stroke:black;stroke-width:9.97px;"/>
                </g>
                <g transform="matrix(0.707107,0.707107,-0.203105,0.203105,14.95,-45.0248)">
                    <path d="M130,32.5L130,56" style="fill:none;stroke:black;stroke-width:9.97px;"/>
                </g>
                <g transform="matrix(0.707107,0.707107,-0.203105,0.203105,14.95,-55.0248)">
                    <path d="M130,32.5L130,56" style="fill:none;stroke:black;stroke-width:9.97px;"/>
                </g>
            </g>
            <g transform="matrix(1.46767,0,0,1.00914,-129.528,18.3828)">
                <path d="M181,19.545C181,18.14 180.216,17 179.25,17L175.75,17C174.784,17 174,18.14 174,19.545L174,71.455C174,72.86 174.784,74 175.75,74L179.25,74C180.216,74 181,72.86 181,71.455L181,19.545Z" style="fill:white;stroke:black;stroke-width:5.83px;"/>
            </g>
            <g id="Pot">
                <g transform="matrix(1.19461,0,0,3.8693,-45.2224,-165.384)">
                    <path d="M169,65.75C169,64.232 165.009,63 160.093,63L134.907,63C129.991,63 126,64.232 126,65.75L126,71.25C126,72.768 129.991,74 134.907,74L160.093,74C165.009,74 169,72.768 169,71.25L169,65.75Z" style="fill:white;stroke:black;stroke-width:2.56px;"/>
                </g>
                <g transform="matrix(1.46767,1.62944e-16,-1.62944e-16,1.46767,-85.4979,-22.8866)">
                    <path d="M169,65.75C169,64.232 167.768,63 166.25,63L128.75,63C127.232,63 126,64.232 126,65.75L126,71.25C126,72.768 127.232,74 128.75,74L166.25,74C167.768,74 169,72.768 169,71.25L169,65.75Z" style="fill:white;stroke:black;stroke-width:5px;"/>
                </g>
            </g>
        </g>
        <g transform="matrix(0.707107,-0.707107,0.707107,0.707107,-10.3973,200.55)">
            <path d="M253.71,141.21L260.79,148.29L249.58,159.5L260.79,170.71L253.71,177.79L242.5,166.58L231.29,177.79L224.21,170.71L235.42,159.5L224.21,148.29L231.29,141.21L242.5,152.42L253.71,141.21Z" style="fill:white;stroke:black;stroke-width:5px;"/>
        </g>
    </g>
    <g id="Log-Out" serif:id="Log Out" transform="matrix(1,0,0,1,13,2.5)">
        <g transform="matrix(1,0,0,0.91791,15,12.0224)">
            <path d="M155,123.626C155,119.417 151.863,116 148,116L127,116C123.137,116 120,119.417 120,123.626L120,175.374C120,179.583 123.137,183 127,183L148,183C151.863,183 155,179.583 155,175.374L155,123.626Z" style="fill:white;stroke:black;stroke-width:5.21px;"/>
        </g>
        <g transform="matrix(0.684783,0,0,1.11538,36.3587,-20.6538)">
            <path d="M130.175,158.32L130.175,166L109,153L130.175,140L130.175,147.68L155,147.68L155,158.32L130.175,158.32Z" style="fill:white;stroke:black;stroke-width:5.4px;"/>
        </g>
        <g transform="matrix(1,0,0,1,2,-1)">
            <circle cx="158" cy="151" r="1" style="stroke:black;stroke-width:5px;"/>
        </g>
    </g>
    <g id="Settings" transform="matrix(0.833333,0,0,0.870968,-0.416667,10.9703)">
        <path d="M64.943,129.258C61.994,128.914 59.006,128.914 56.057,129.258L54.534,133.885C51.688,134.409 48.944,135.307 46.388,136.549L41.912,133.884C39.406,135.324 37.118,137.049 35.105,139.017L37.248,143.44C35.443,145.486 33.983,147.759 32.914,150.186L27.579,150.73C26.689,153.28 26.17,155.924 26.036,158.594L30.842,160.744C30.923,163.354 31.43,165.938 32.347,168.415L28.649,171.913C29.792,174.381 31.286,176.705 33.093,178.829L38.313,177.7C40.242,179.652 42.479,181.339 44.953,182.707L44.623,187.522C47.264,188.752 50.071,189.67 52.974,190.253L56.166,186.374C59.04,186.755 61.96,186.755 64.834,186.374L68.026,190.253C70.929,189.67 73.736,188.752 76.377,187.522L76.047,182.707C78.521,181.339 80.758,179.652 82.687,177.7L87.907,178.829C89.714,176.705 91.208,174.381 92.351,171.913L88.653,168.415C89.57,165.938 90.077,163.354 90.158,160.744L94.964,158.594C94.83,155.924 94.311,153.28 93.421,150.73L88.086,150.186C87.017,147.759 85.557,145.486 83.752,143.44L85.895,139.017C83.882,137.049 81.594,135.324 79.088,133.884L74.612,136.549C72.056,135.307 69.312,134.409 66.466,133.885L64.943,129.258ZM60.5,145.43C69.449,145.43 76.715,151.959 76.715,160C76.715,168.041 69.449,174.57 60.5,174.57C51.551,174.57 44.285,168.041 44.285,160C44.285,151.959 51.551,145.43 60.5,145.43Z" style="fill:white;stroke:black;stroke-width:5.87px;"/>
    </g>
    <g id="Notes" transform="matrix(0.819558,0,0,0.819558,55.2866,0.406698)">
        <path d="M380,25L316.73,25C319.798,43.161 323.255,61.322 316.73,79.483L380,79.483C388.777,61.588 383.938,43.28 380,25Z" style="fill:white;stroke:black;stroke-width:6.1px;"/>
        <g transform="matrix(1,0,0,1,9,8)">
            <path d="M380,25L316.73,25C319.798,43.161 323.255,61.322 316.73,79.483L380,79.483C388.777,61.588 383.938,43.28 380,25Z" style="fill:white;stroke:black;stroke-width:6.1px;"/>
        </g>
        <g transform="matrix(1,0,0,1,17.5412,16.5412)">
            <path d="M380,25L316.73,25C319.798,43.161 323.255,61.322 316.73,79.483L380,79.483C388.777,61.588 383.938,43.28 380,25Z" style="fill:white;stroke:black;stroke-width:6.1px;"/>
        </g>
        <g transform="matrix(1.22017,0,0,1.22017,-67.4591,19.0265)">
            <path d="M339,46L347,49.778L354,46L361,49L368,46L375,50" style="fill:none;stroke:black;stroke-width:5px;"/>
        </g>
        <g transform="matrix(1.22017,0,0,1.22017,-67.4591,3.16427)">
            <path d="M339,46L347,49.778L354,46L361,49L368,46L375,50" style="fill:none;stroke:black;stroke-width:5px;"/>
        </g>
    </g>
    <g id="My-Plants1" serif:id="My Plants" transform="matrix(1,0,0,1,-0.5,-1.5)">
        <g id="My-Plants2" serif:id="My Plants" transform="matrix(0.681353,0,0,0.681353,60.0247,0.748148)">
            <g id="Leaves1" serif:id="Leaves" transform="matrix(-0.5,0.866025,0.866025,0.5,113.323,-73.3846)">
                <g transform="matrix(1.375,2.57147e-18,1.02859e-17,1.28235,-22.75,-3.51765)">
                    <path d="M86,16C86,16 74,36.743 74,45.633C74,52.735 79.377,58.5 86,58.5C92.623,58.5 98,52.735 98,45.633C98,36.743 86,16 86,16Z" style="fill:white;stroke:black;stroke-width:5.52px;"/>
                </g>
                <g transform="matrix(1,0,0,1,-34.5,5.25)">
                    <path d="M130,32.5L130,56" style="fill:none;stroke:black;stroke-width:7.34px;"/>
                </g>
                <g transform="matrix(0.707107,-0.707107,0.203105,0.203105,-8.0248,128.823)">
                    <path d="M130,32.5L130,56" style="fill:none;stroke:black;stroke-width:9.97px;"/>
                </g>
                <g transform="matrix(0.707107,-0.707107,0.203105,0.203105,-8.0248,138.823)">
                    <path d="M130,32.5L130,56" style="fill:none;stroke:black;stroke-width:9.97px;"/>
                </g>
                <g transform="matrix(0.707107,0.707107,-0.203105,0.203105,14.95,-45.0248)">
                    <path d="M130,32.5L130,56" style="fill:none;stroke:black;stroke-width:9.97px;"/>
                </g>
                <g transform="matrix(0.707107,0.707107,-0.203105,0.203105,14.95,-55.0248)">
                    <path d="M130,32.5L130,56" style="fill:none;stroke:black;stroke-width:9.97px;"/>
                </g>
            </g>
            <g transform="matrix(1.46767,0,0,1.00914,-129.528,18.3828)">
                <path d="M181,19.545C181,18.14 180.216,17 179.25,17L175.75,17C174.784,17 174,18.14 174,19.545L174,71.455C174,72.86 174.784,74 175.75,74L179.25,74C180.216,74 181,72.86 181,71.455L181,19.545Z" style="fill:white;stroke:black;stroke-width:5.83px;"/>
            </g>
            <g transform="matrix(1.19461,0,0,3.8693,-45.2224,-165.384)">
                <path d="M169,65.75C169,64.232 165.009,63 160.093,63L134.907,63C129.991,63 126,64.232 126,65.75L126,71.25C126,72.768 129.991,74 134.907,74L160.093,74C165.009,74 169,72.768 169,71.25L169,65.75Z" style="fill:white;stroke:black;stroke-width:2.56px;"/>
            </g>
            <g transform="matrix(1.46767,1.62944e-16,-1.62944e-16,1.46767,-85.4979,-22.8866)">
                <path d="M169,65.75C169,64.232 167.768,63 166.25,63L128.75,63C127.232,63 126,64.232 126,65.75L126,71.25C126,72.768 127.232,74 128.75,74L166.25,74C167.768,74 169,72.768 169,71.25L169,65.75Z" style="fill:white;stroke:black;stroke-width:5px;"/>
            </g>
        </g>
        <g id="My-Plants3" serif:id="My Plants" transform="matrix(0.681353,0,0,0.681353,73.0247,7.74815)">
            <g id="Leaves2" serif:id="Leaves" transform="matrix(-0.5,0.866025,0.866025,0.5,113.323,-73.3846)">
                <g transform="matrix(1.375,2.57147e-18,1.02859e-17,1.28235,-22.75,-3.51765)">
                    <path d="M86,16C86,16 74,36.743 74,45.633C74,52.735 79.377,58.5 86,58.5C92.623,58.5 98,52.735 98,45.633C98,36.743 86,16 86,16Z" style="fill:white;stroke:black;stroke-width:5.52px;"/>
                </g>
                <g transform="matrix(1,0,0,1,-34.5,5.25)">
                    <path d="M130,32.5L130,56" style="fill:none;stroke:black;stroke-width:7.34px;"/>
                </g>
                <g transform="matrix(0.707107,-0.707107,0.203105,0.203105,-8.0248,128.823)">
                    <path d="M130,32.5L130,56" style="fill:none;stroke:black;stroke-width:9.97px;"/>
                </g>
                <g transform="matrix(0.707107,-0.707107,0.203105,0.203105,-8.0248,138.823)">
                    <path d="M130,32.5L130,56" style="fill:none;stroke:black;stroke-width:9.97px;"/>
                </g>
                <g transform="matrix(0.707107,0.707107,-0.203105,0.203105,14.95,-45.0248)">
                    <path d="M130,32.5L130,56" style="fill:none;stroke:black;stroke-width:9.97px;"/>
                </g>
                <g transform="matrix(0.707107,0.707107,-0.203105,0.203105,14.95,-55.0248)">
                    <path d="M130,32.5L130,56" style="fill:none;stroke:black;stroke-width:9.97px;"/>
                </g>
            </g>
            <g transform="matrix(1.46767,0,0,1.00914,-129.528,18.3828)">
                <path d="M181,19.545C181,18.14 180.216,17 179.25,17L175.75,17C174.784,17 174,18.14 174,19.545L174,71.455C174,72.86 174.784,74 175.75,74L179.25,74C180.216,74 181,72.86 181,71.455L181,19.545Z" style="fill:white;stroke:black;stroke-width:5.83px;"/>
            </g>
            <g id="Pot1" serif:id="Pot">
                <g transform="matrix(1.19461,0,0,3.8693,-45.2224,-165.384)">
                    <path d="M169,65.75C169,64.232 165.009,63 160.093,63L134.907,63C129.991,63 126,64.232 126,65.75L126,71.25C126,72.768 129.991,74 134.907,74L160.093,74C165.009,74 169,72.768 169,71.25L169,65.75Z" style="fill:white;stroke:black;stroke-width:2.56px;"/>
                </g>
                <g transform="matrix(1.46767,1.62944e-16,-1.62944e-16,1.46767,-85.4979,-22.8866)">
                    <path d="M169,65.75C169,64.232 167.768,63 166.25,63L128.75,63C127.232,63 126,64.232 126,65.75L126,71.25C126,72.768 127.232,74 128.75,74L166.25,74C167.768,74 169,72.768 169,71.25L169,65.75Z" style="fill:white;stroke:black;stroke-width:5px;"/>
                </g>
            </g>
        </g>
    </g>
    <g id="Overview" transform="matrix(1.14704,0,0,1.14704,-6.71105,-5.91837)">
        <g id="Gauge" transform="matrix(1,0,0,1,3,-3)">
            <g transform="matrix(1.06613,0,0,1.10227,4.99497,6.76136)">
                <circle cx="31" cy="39" r="22" style="fill:white;stroke:black;stroke-width:4.02px;"/>
            </g>
            <g transform="matrix(0.728329,0,0,0.728329,-23.8629,25.7151)">
                <circle cx="85" cy="33" r="3" style="fill:white;stroke:black;stroke-width:5.98px;"/>
            </g>
            <g transform="matrix(0.0459827,-0.063269,0.462023,0.335789,17.0552,41.5379)">
                <rect x="76" y="17" width="1" height="25" style="fill:white;stroke:black;stroke-width:10.69px;"/>
            </g>
            <g transform="matrix(-1.11081e-17,0.192153,0.174799,-3.97536e-17,13.1584,35.3964)">
                <rect x="76" y="17" width="1" height="25" style="fill:white;stroke:black;stroke-width:23.73px;"/>
            </g>
            <g transform="matrix(-0.135873,0.135873,0.123602,0.123602,32.063,20.0556)">
                <rect x="76" y="17" width="1" height="25" style="fill:white;stroke:black;stroke-width:23.73px;"/>
            </g>
            <g transform="matrix(-0.135873,-0.135873,-0.123602,0.123602,64.3555,40.8441)">
                <rect x="76" y="17" width="1" height="25" style="fill:white;stroke:black;stroke-width:23.73px;"/>
            </g>
            <g transform="matrix(0.0960765,0.166409,0.15138,-0.0873995,14.4994,54.944)">
                <rect x="76" y="17" width="1" height="25" style="fill:white;stroke:black;stroke-width:23.73px;"/>
            </g>
            <g transform="matrix(-1.11081e-17,0.192153,0.174799,-3.97536e-17,52.1584,35.3964)">
                <rect x="76" y="17" width="1" height="25" style="fill:white;stroke:black;stroke-width:23.73px;"/>
            </g>
            <g transform="matrix(-0.135873,0.135873,0.123602,0.123602,57.063,51.0556)">
                <rect x="76" y="17" width="1" height="25" style="fill:white;stroke:black;stroke-width:23.73px;"/>
            </g>
        </g>
        <g id="Leaves3" serif:id="Leaves" transform="matrix(0.942145,0.335205,-0.335205,0.942145,-6.97885,-25.3332)">
            <g transform="matrix(1.375,2.57147e-18,1.02859e-17,1.28235,-22.75,-3.51765)">
                <path d="M86,16C86,16 74,36.743 74,45.633C74,52.735 79.377,58.5 86,58.5C92.623,58.5 98,52.735 98,45.633C98,36.743 86,16 86,16Z" style="fill:white;stroke:black;stroke-width:3.28px;"/>
            </g>
            <g transform="matrix(1,0,0,1,-34.5,5.25)">
                <path d="M130,32.5L130,56" style="fill:none;stroke:black;stroke-width:4.36px;"/>
            </g>
            <g transform="matrix(0.707107,-0.707107,0.203105,0.203105,-8.0248,128.823)">
                <path d="M130,32.5L130,56" style="fill:none;stroke:black;stroke-width:5.93px;"/>
            </g>
            <g transform="matrix(0.707107,-0.707107,0.203105,0.203105,-8.0248,138.823)">
                <path d="M130,32.5L130,56" style="fill:none;stroke:black;stroke-width:5.93px;"/>
            </g>
            <g transform="matrix(0.707107,0.707107,-0.203105,0.203105,14.95,-45.0248)">
                <path d="M130,32.5L130,56" style="fill:none;stroke:black;stroke-width:5.93px;"/>
            </g>
            <g transform="matrix(0.707107,0.707107,-0.203105,0.203105,14.95,-55.0248)">
                <path d="M130,32.5L130,56" style="fill:none;stroke:black;stroke-width:5.93px;"/>
            </g>
        </g>
    </g>
    <g transform="matrix(1,0,0,1,-3.2224,-8.93023)">
        <g id="Pot2" serif:id="Pot" transform="matrix(1.14792,0,0,1.14792,102.865,-50.4212)">
            <g transform="matrix(1.19461,0,0,3.8693,-45.2224,-165.384)">
                <path d="M169,65.75C169,64.232 165.009,63 160.093,63L134.907,63C129.991,63 126,64.232 126,65.75L126,71.25C126,72.768 129.991,74 134.907,74L160.093,74C165.009,74 169,72.768 169,71.25L169,65.75Z" style="fill:white;stroke:black;stroke-width:1.52px;"/>
            </g>
            <g transform="matrix(1.46767,1.62944e-16,-1.62944e-16,1.46767,-85.4979,-22.8866)">
                <path d="M169,65.75C169,64.232 167.768,63 166.25,63L128.75,63C127.232,63 126,64.232 126,65.75L126,71.25C126,72.768 127.232,74 128.75,74L166.25,74C167.768,74 169,72.768 169,71.25L169,65.75Z" style="fill:white;stroke:black;stroke-width:2.97px;"/>
            </g>
        </g>
        <g transform="matrix(8.66315e-18,-0.184,0.45508,2.68129e-17,232.21,118.99)">
            <path d="M215,55.912L215,36.433L271.176,36.433L271.176,18.346L340,46.173L271.176,74L271.176,55.912L215,55.912Z" style="fill:white;stroke:black;stroke-width:14.41px;"/>
        </g>
    </g>
    <g id="Info" transform="matrix(1,0,0,1,0.895643,1.5)">
        <g transform="matrix(0.927124,0,0,0.927124,32.729,4.6438)">
            <circle cx="449.104" cy="50" r="29.104" style="fill:white;stroke:black;stroke-width:5.39px;"/>
        </g>
        <g transform="matrix(1,0,0,1,2.4411,-10.4901)">
            <text x="435px" y="76px" style="font-family:'ArialRoundedMTBold', 'Arial Rounded MT Bold', sans-serif;font-size:40.485px;">?</text>
        </g>
    </g>
</svg>
